# Blender v3.2.2 OBJ File: 'defaultMeshesRender.blend'
# www.blender.org
mtllib defaultCylinder.mtl
o Cylinder
v 0.000000 -2.000000 1.000000
v 0.000000 2.000000 1.000000
v 0.309017 -2.000000 0.951056
v 0.309017 2.000000 0.951057
v 0.587785 -2.000000 0.809017
v 0.587785 2.000000 0.809017
v 0.809017 -2.000000 0.587785
v 0.809017 2.000000 0.587785
v 0.951057 -2.000000 0.309017
v 0.951057 2.000000 0.309017
v 1.000000 -2.000000 -0.000000
v 1.000000 2.000000 -0.000000
v 0.951056 -2.000000 -0.309017
v 0.951056 2.000000 -0.309017
v 0.809017 -2.000000 -0.587785
v 0.809017 2.000000 -0.587785
v 0.587785 -2.000000 -0.809017
v 0.587785 2.000000 -0.809017
v 0.309017 -2.000000 -0.951056
v 0.309017 2.000000 -0.951057
v -0.000000 -2.000000 -1.000000
v -0.000000 2.000000 -1.000000
v -0.309017 -2.000000 -0.951057
v -0.309017 2.000000 -0.951056
v -0.587785 -2.000000 -0.809017
v -0.587785 2.000000 -0.809017
v -0.809017 -2.000000 -0.587785
v -0.809017 2.000000 -0.587785
v -0.951056 -2.000000 -0.309017
v -0.951056 2.000000 -0.309017
v -1.000000 -2.000000 0.000000
v -1.000000 2.000000 0.000000
v -0.951056 -2.000000 0.309017
v -0.951056 2.000000 0.309017
v -0.809017 -2.000000 0.587785
v -0.809017 2.000000 0.587785
v -0.587785 -2.000000 0.809017
v -0.587785 2.000000 0.809017
v -0.309017 -2.000000 0.951056
v -0.309017 2.000000 0.951057
vt 0.950000 0.000000
vt 1.000000 0.000001
vt 0.999997 1.000001
vt 0.949997 1.000001
vt 0.100000 0.000001
vt 0.150000 0.000000
vt 0.150003 1.000000
vt 0.100003 1.000000
vt 0.200000 0.000000
vt 0.200002 1.000000
vt 0.250000 0.000000
vt 0.250002 1.000000
vt 0.300000 -0.000000
vt 0.300002 1.000000
vt 0.350000 -0.000000
vt 0.350001 1.000000
vt 0.400000 -0.000000
vt 0.400001 1.000000
vt 0.450000 -0.000000
vt 0.450001 1.000000
vt 0.500000 -0.000000
vt 0.500000 1.000000
vt 0.550000 -0.000000
vt 0.550000 1.000000
vt 0.600000 -0.000000
vt 0.599999 1.000000
vt 0.650000 -0.000000
vt 0.649999 1.000000
vt 0.700000 -0.000000
vt 0.699999 1.000000
vt 0.750000 -0.000000
vt 0.749998 1.000000
vt 0.800000 -0.000000
vt 0.799998 1.000000
vt 0.850000 -0.000000
vt 0.849998 1.000000
vt 0.900000 0.000000
vt 0.899997 1.000000
vt 0.050000 0.000001
vt 0.050004 1.000001
vt 0.000000 0.000001
vt 0.000004 1.000001
vt 0.579192 0.000000
vt 0.729825 0.048944
vt 0.857960 0.142040
vt 0.951056 0.270175
vt 1.000000 0.420808
vt 1.000000 0.579192
vt 0.951056 0.729824
vt 0.857961 0.857960
vt 0.729825 0.951056
vt 0.579193 1.000000
vt 0.420808 1.000000
vt 0.270175 0.951056
vt 0.142040 0.857960
vt 0.048944 0.729825
vt 0.000000 0.579192
vt 0.000000 0.420808
vt 0.048944 0.270175
vt 0.142040 0.142040
vt 0.270176 0.048943
vt 0.420808 0.000000
vt 0.420808 1.000000
vt 0.270175 0.951057
vt 0.142039 0.857961
vt 0.048944 0.729825
vt 0.000000 0.579192
vt 0.000000 0.420808
vt 0.048944 0.270175
vt 0.142039 0.142040
vt 0.270175 0.048944
vt 0.420808 0.000000
vt 0.579192 0.000000
vt 0.729825 0.048944
vt 0.857960 0.142040
vt 0.951056 0.270175
vt 1.000000 0.420808
vt 1.000000 0.579192
vt 0.951056 0.729825
vt 0.857961 0.857960
vt 0.729825 0.951056
vt 0.579192 1.000000
vn -0.3090 -0.0000 0.9511
vn -0.0000 -0.0000 1.0000
vn 0.5878 -0.0000 0.8090
vn 0.8090 0.0000 0.5878
vn 0.9511 0.0000 0.3090
vn 1.0000 0.0000 -0.0000
vn 0.9511 0.0000 -0.3090
vn 0.8090 0.0000 -0.5878
vn 0.5878 -0.0000 -0.8090
vn 0.3090 -0.0000 -0.9511
vn 0.0000 0.0000 -1.0000
vn -0.3090 0.0000 -0.9511
vn -0.5878 0.0000 -0.8090
vn -0.8090 0.0000 -0.5878
vn -0.9511 0.0000 -0.3090
vn -1.0000 0.0000 0.0000
vn -0.9511 -0.0000 0.3090
vn -0.8090 -0.0000 0.5878
vn -0.5878 0.0000 0.8090
vn 0.3090 -0.0000 0.9511
vn -0.0000 1.0000 -0.0000
vn -0.0000 -1.0000 -0.0000
usemtl Material
s 1
f 39/1/1 1/2/2 2/3/2 40/4/1
f 5/5/3 7/6/4 8/7/4 6/8/3
f 7/6/4 9/9/5 10/10/5 8/7/4
f 9/9/5 11/11/6 12/12/6 10/10/5
f 11/11/6 13/13/7 14/14/7 12/12/6
f 13/13/7 15/15/8 16/16/8 14/14/7
f 15/15/8 17/17/9 18/18/9 16/16/8
f 17/17/9 19/19/10 20/20/10 18/18/9
f 19/19/10 21/21/11 22/22/11 20/20/10
f 21/21/11 23/23/12 24/24/12 22/22/11
f 23/23/12 25/25/13 26/26/13 24/24/12
f 25/25/13 27/27/14 28/28/14 26/26/13
f 27/27/14 29/29/15 30/30/15 28/28/14
f 29/29/15 31/31/16 32/32/16 30/30/15
f 31/31/16 33/33/17 34/34/17 32/32/16
f 33/33/17 35/35/18 36/36/18 34/34/17
f 35/35/18 37/37/19 38/38/19 36/36/18
f 37/37/19 39/1/1 40/4/1 38/38/19
f 3/39/20 5/5/3 6/8/3 4/40/20
f 1/41/2 3/39/20 4/40/20 2/42/2
f 4/43/21 6/44/21 8/45/21 10/46/21 12/47/21 14/48/21 16/49/21 18/50/21 20/51/21 22/52/21 24/53/21 26/54/21 28/55/21 30/56/21 32/57/21 34/58/21 36/59/21 38/60/21 40/61/21 2/62/21
f 1/63/22 39/64/22 37/65/22 35/66/22 33/67/22 31/68/22 29/69/22 27/70/22 25/71/22 23/72/22 21/73/22 19/74/22 17/75/22 15/76/22 13/77/22 11/78/22 9/79/22 7/80/22 5/81/22 3/82/22
